<mxfile host="Electron" agent="Mozilla/5.0 (Windows NT 10.0; Win64; x64) AppleWebKit/537.36 (KHTML, like Gecko) draw.io/24.7.8 Chrome/128.0.6613.36 Electron/32.0.1 Safari/537.36" version="24.7.8">
  <diagram name="Page-1" id="trQdiBlen_foMQJMFfYV">
    <mxGraphModel dx="724" dy="428" grid="1" gridSize="10" guides="1" tooltips="1" connect="1" arrows="1" fold="1" page="1" pageScale="1" pageWidth="850" pageHeight="1100" math="0" shadow="0">
      <root>
        <mxCell id="0" />
        <mxCell id="1" parent="0" />
        <mxCell id="NOaE37VPc0i63LTB-BPz-1" value="&lt;b&gt;Raspberry Pi&lt;/b&gt;" style="rounded=0;whiteSpace=wrap;html=1;fontStyle=1" parent="1" vertex="1">
          <mxGeometry x="320" y="240" width="160" height="40" as="geometry" />
        </mxCell>
        <mxCell id="yJ3yhxOb3OaTGg_4wgQc-15" value="&lt;span style=&quot;font-size: 10px;&quot;&gt;3&lt;/span&gt;" style="text;html=1;align=center;verticalAlign=middle;resizable=0;points=[];autosize=1;strokeColor=none;fillColor=none;spacing=-3;" parent="1" vertex="1">
          <mxGeometry x="400" y="290" width="20" height="20" as="geometry" />
        </mxCell>
        <mxCell id="zSylBcuHnzA9nK1PdeE2-1" value="&lt;b&gt;&amp;nbsp; Interface&lt;/b&gt;" style="rounded=0;whiteSpace=wrap;html=1;align=left;verticalAlign=top;" parent="1" vertex="1">
          <mxGeometry x="280" y="320" width="240" height="200" as="geometry" />
        </mxCell>
        <mxCell id="zSylBcuHnzA9nK1PdeE2-2" value="&lt;font style=&quot;font-size: 10px;&quot;&gt;UI_Control&lt;/font&gt;" style="rounded=0;whiteSpace=wrap;html=1;" parent="1" vertex="1">
          <mxGeometry x="367.5" y="360" width="65" height="20" as="geometry" />
        </mxCell>
        <mxCell id="zSylBcuHnzA9nK1PdeE2-3" value="&lt;font style=&quot;font-size: 10px;&quot;&gt;User_Control&lt;/font&gt;" style="rounded=0;whiteSpace=wrap;html=1;" parent="1" vertex="1">
          <mxGeometry x="320" y="420" width="65" height="20" as="geometry" />
        </mxCell>
        <mxCell id="zSylBcuHnzA9nK1PdeE2-4" value="&lt;font style=&quot;font-size: 10px;&quot;&gt;Algorithm_Upload&lt;/font&gt;" style="rounded=0;whiteSpace=wrap;html=1;" parent="1" vertex="1">
          <mxGeometry x="400" y="420" width="90" height="20" as="geometry" />
        </mxCell>
        <mxCell id="zSylBcuHnzA9nK1PdeE2-5" value="" style="endArrow=classic;html=1;rounded=0;entryX=0.051;entryY=1.003;entryDx=0;entryDy=0;entryPerimeter=0;exitX=0.781;exitY=-0.016;exitDx=0;exitDy=0;exitPerimeter=0;targetPerimeterSpacing=-2;startArrow=none;startFill=0;endFill=1;" parent="1" edge="1">
          <mxGeometry width="50" height="50" relative="1" as="geometry">
            <mxPoint x="371" y="420" as="sourcePoint" />
            <mxPoint x="371" y="380" as="targetPoint" />
          </mxGeometry>
        </mxCell>
        <mxCell id="zSylBcuHnzA9nK1PdeE2-6" value="" style="endArrow=classic;html=1;rounded=0;entryX=0.051;entryY=1.003;entryDx=0;entryDy=0;entryPerimeter=0;exitX=0.781;exitY=-0.016;exitDx=0;exitDy=0;exitPerimeter=0;targetPerimeterSpacing=-2;endFill=1;" parent="1" edge="1">
          <mxGeometry width="50" height="50" relative="1" as="geometry">
            <mxPoint x="420" y="420" as="sourcePoint" />
            <mxPoint x="420" y="380" as="targetPoint" />
          </mxGeometry>
        </mxCell>
        <mxCell id="zSylBcuHnzA9nK1PdeE2-7" value="&lt;font style=&quot;font-size: 10px;&quot;&gt;11&lt;/font&gt;" style="text;html=1;align=center;verticalAlign=middle;resizable=0;points=[];autosize=1;strokeColor=none;fillColor=none;spacing=-3;" parent="1" vertex="1">
          <mxGeometry x="350" y="392" width="20" height="20" as="geometry" />
        </mxCell>
        <mxCell id="zSylBcuHnzA9nK1PdeE2-8" value="&lt;font style=&quot;font-size: 10px;&quot;&gt;12&lt;/font&gt;" style="text;html=1;align=center;verticalAlign=middle;resizable=0;points=[];autosize=1;strokeColor=none;fillColor=none;spacing=-3;" parent="1" vertex="1">
          <mxGeometry x="420" y="392" width="20" height="20" as="geometry" />
        </mxCell>
        <mxCell id="zSylBcuHnzA9nK1PdeE2-9" style="edgeStyle=orthogonalEdgeStyle;rounded=0;orthogonalLoop=1;jettySize=auto;html=1;entryX=0.508;entryY=-0.01;entryDx=0;entryDy=0;startArrow=classic;startFill=1;entryPerimeter=0;" parent="1" target="zSylBcuHnzA9nK1PdeE2-2" edge="1">
          <mxGeometry relative="1" as="geometry">
            <mxPoint x="400" y="280" as="sourcePoint" />
            <mxPoint x="400" y="360" as="targetPoint" />
          </mxGeometry>
        </mxCell>
      </root>
    </mxGraphModel>
  </diagram>
</mxfile>
